<?xml version="1.0" standalone="no"?>
<!DOCTYPE svg PUBLIC "-//W3C//DTD SVG 20010904//EN"
 "http://www.w3.org/TR/2001/REC-SVG-20010904/DTD/svg10.dtd">
<svg version="1.0" xmlns="http://www.w3.org/2000/svg"
 width="260.000000pt" height="260.000000pt" viewBox="0 0 260.000000 260.000000"
 preserveAspectRatio="xMidYMid meet">
<metadata>
Created by potrace 1.14, written by Peter Selinger 2001-2017
</metadata>
<g transform="translate(0.000000,260.000000) scale(0.100000,-0.100000)"
fill="#000000" stroke="none">
<path d="M0 1300 l0 -1300 1300 0 1300 0 0 1300 0 1300 -1300 0 -1300 0 0
-1300z m1548 819 c50 -9 62 -14 58 -28 -18 -65 -68 -323 -63 -327 3 -3 36 -12
74 -19 253 -49 403 -205 403 -420 0 -91 -30 -210 -72 -284 -46 -81 -159 -189
-243 -233 -96 -49 -172 -70 -290 -77 l-99 -6 -18 -80 c-10 -44 -20 -90 -23
-102 -5 -23 -8 -23 -145 -23 -159 0 -148 -8 -125 97 9 37 18 78 20 91 5 20 2
22 -42 22 -118 1 -241 50 -316 126 -87 87 -123 198 -115 349 12 207 108 344
313 445 91 45 232 88 318 97 32 3 60 10 63 14 4 8 64 276 64 290 0 7 -114 -6
-185 -21 -72 -15 -136 -51 -163 -91 -21 -30 -23 -43 -19 -101 4 -67 4 -68 -20
-68 -56 0 -113 23 -144 58 -28 31 -31 40 -27 83 3 31 14 60 32 83 46 61 186
115 348 136 89 11 330 5 416 -11z"/>
<path d="M1155 1640 c-218 -61 -327 -224 -328 -490 -1 -127 23 -198 87 -265
37 -39 117 -77 131 -63 8 7 176 810 173 823 -2 9 -19 8 -63 -5z"/>
<path d="M1446 1338 c-38 -178 -77 -360 -87 -406 -27 -119 -28 -116 33 -109
182 22 342 228 364 469 11 127 -22 236 -90 295 -26 24 -128 73 -149 73 -2 0
-34 -145 -71 -322z"/>
</g>
</svg>
